<?xml version="1.0" encoding="utf-8"?>
<svg xmlns="http://www.w3.org/2000/svg" viewBox="217.12 143.95 565.76 712.09" width="565.76px" height="712.09px"><defs><linearGradient id="uuid-d54f9eda-def9-4d5b-901a-1658a25a1ac9" x1="217.13" y1="290.96" x2="745.21" y2="290.96" gradientUnits="userSpaceOnUse"><stop offset="0" stop-color="#a5ce3a"/><stop offset="1" stop-color="#86ac3f"/></linearGradient><style>
      .uuid-589169d2-53e6-4d4c-b4c9-b69732edb35e {
        fill: #30375a;
      }

      .uuid-589169d2-53e6-4d4c-b4c9-b69732edb35e, .uuid-096a3d27-61b0-41c7-94dd-d011738a7e46, .uuid-687c14a5-92dc-4d18-8943-5f0a4793c54c, .uuid-3f2cf898-617e-4a2e-9cf8-4f31d88152db, .uuid-ef2b0b12-42c5-47c1-b683-1d326bf9b976, .uuid-720cee1b-7a32-4918-ab93-27adfd67358e, .uuid-7f3cd343-e147-4669-b335-0c3834954557, .uuid-5ebfdac4-04ea-4bd5-9f1c-232e33f19f39, .uuid-ab9a33d3-208d-45b6-a339-93a4a3da554f, .uuid-cde3e82d-e5dc-4e45-94fa-aeaacb0b896d, .uuid-4a332c01-40d2-4254-801e-d658fea7101b {
        stroke-width: 0px;
      }

      .uuid-096a3d27-61b0-41c7-94dd-d011738a7e46, .uuid-109a1e66-b7cf-4724-89a4-d2bdd6adf91a {
        fill: #fdb515;
      }

      .uuid-687c14a5-92dc-4d18-8943-5f0a4793c54c {
        fill: #2f1121;
      }

      .uuid-3f2cf898-617e-4a2e-9cf8-4f31d88152db {
        fill: none;
      }

      .uuid-2262edc1-cdcd-4f4b-8778-74c661971577 {
        clip-path: url(#uuid-df262fb5-27af-4e37-93c5-23a81f3bc2fe);
      }

      .uuid-109a1e66-b7cf-4724-89a4-d2bdd6adf91a {
        stroke: #fff;
        stroke-miterlimit: 10;
        stroke-width: 2px;
      }

      .uuid-ef2b0b12-42c5-47c1-b683-1d326bf9b976 {
        fill: #cecbe6;
      }

      .uuid-720cee1b-7a32-4918-ab93-27adfd67358e {
        fill: #cdcccc;
      }

      .uuid-7f3cd343-e147-4669-b335-0c3834954557, .uuid-ab9a33d3-208d-45b6-a339-93a4a3da554f {
        fill: #fff;
      }

      .uuid-5ebfdac4-04ea-4bd5-9f1c-232e33f19f39 {
        fill: #dcdbdb;
      }

      .uuid-ab9a33d3-208d-45b6-a339-93a4a3da554f {
        opacity: .1;
      }

      .uuid-c89eaaa0-7ea2-4828-9056-2512239193cc {
        opacity: .73;
      }

      .uuid-cde3e82d-e5dc-4e45-94fa-aeaacb0b896d {
        fill: url(#uuid-d54f9eda-def9-4d5b-901a-1658a25a1ac9);
      }

      .uuid-48d6b363-7b03-48a3-9ab2-3b5084453e0f {
        clip-path: url(#uuid-5cb4309c-2032-4a7f-a914-8b7ffcdd4aba);
      }

      .uuid-4a332c01-40d2-4254-801e-d658fea7101b {
        fill: #8e466d;
      }
    </style></defs><g id="object-15" transform="matrix(1, 0, 0, 1, 2.2737367544323206e-13, 0)"><rect class="uuid-7f3cd343-e147-4669-b335-0c3834954557" x="217.13" y="143.95" width="565.73" height="712.09" id="object-0"/><path class="uuid-7f3cd343-e147-4669-b335-0c3834954557" d="m782.87,431.34v-211.04c-99.65,64.46-215.75,126.38-343.02,180.89-75.57,32.37-150.3,60.07-222.71,83.04v242.37c65.96-56.23,142.09-109.61,226.4-157.16,114.72-64.71,230.86-110.88,339.34-138.1Z" id="object-1"/><path class="uuid-ef2b0b12-42c5-47c1-b683-1d326bf9b976" d="m464.02,588.97c104.21-58.78,214.9-93.04,318.84-104.54v-33.6c-108.48,27.21-224.62,73.39-339.34,138.1-84.3,47.55-160.44,100.94-226.4,157.16v56.93c59.72-80.5,143.07-155.5,246.89-214.06Z" id="object-2"/><path class="uuid-687c14a5-92dc-4d18-8943-5f0a4793c54c" d="m217.13,783.53v72.51h565.73v-391.11c-103.94,11.49-214.64,45.76-318.84,104.54-103.82,58.56-187.17,133.56-246.89,214.06Z" id="object-3"/><path class="uuid-cde3e82d-e5dc-4e45-94fa-aeaacb0b896d" d="m745.21,143.95H217.13v294.01c92.38-8.76,191.61-37.29,285.42-86.75,105.45-55.6,187.76-129.05,242.66-207.26Z" id="object-4"/><path class="uuid-4a332c01-40d2-4254-801e-d658fea7101b" d="m430.87,393.53c-72.38,31-144.51,54.23-213.73,69.87v263.2c65.96-56.23,142.09-109.61,226.4-157.16,114.72-64.71,230.86-110.88,339.34-138.1V160.66c-84.73,87.53-206.68,170.63-352,232.87Z" id="object-5"/><path class="uuid-096a3d27-61b0-41c7-94dd-d011738a7e46" d="m217.13,726.6v56.93c59.72-80.5,143.07-155.5,246.89-214.06,104.21-58.78,214.9-93.05,318.84-104.54v-33.6c-108.48,27.21-224.62,73.39-339.34,138.1-84.3,47.55-160.44,100.94-226.4,157.16Z" id="object-6"/><path class="uuid-7f3cd343-e147-4669-b335-0c3834954557" d="m745.21,143.95c-54.89,78.21-137.2,151.66-242.66,207.26-93.81,49.46-193.04,77.98-285.42,86.75v25.44c69.23-15.64,141.35-38.87,213.73-69.87,145.32-62.25,267.27-145.34,352-232.87v-16.7h-37.66Z" id="object-7"/><path class="uuid-589169d2-53e6-4d4c-b4c9-b69732edb35e" d="m421.03,376.17c-68.26,24.68-137.57,35.48-203.9,33.95v27.85c92.38-8.76,191.61-37.29,285.42-86.75,105.45-55.6,187.76-129.05,242.66-207.26h-40.14c-57.35,100.69-156.68,186.17-284.03,232.21Z" id="object-8"/><path class="uuid-096a3d27-61b0-41c7-94dd-d011738a7e46" d="m421.03,376.17c127.35-46.05,226.68-131.53,284.03-232.21h-104.06c-20.91,97.57-82.79,170.37-170.08,201.93-71.15,25.72-146.3,19.39-213.79-17.34v81.57c66.33,1.54,135.64-9.27,203.9-33.95Z" id="object-9"/><path class="uuid-5ebfdac4-04ea-4bd5-9f1c-232e33f19f39" d="m217.13,328.55c67.49,36.73,142.65,43.06,213.79,17.34,87.29-31.56,149.17-104.36,170.08-201.93H217.13v184.59Z" id="object-10"/><path class="uuid-109a1e66-b7cf-4724-89a4-d2bdd6adf91a" d="m413.56,599.55c-71.84,0-130.28-58.44-130.28-130.28s58.44-130.28,130.28-130.28,130.28,58.44,130.28,130.28-58.44,130.28-130.28,130.28Zm0-242.8c-62.04,0-112.52,50.48-112.52,112.52s50.48,112.52,112.52,112.52,112.53-50.48,112.53-112.52-50.48-112.52-112.53-112.52Z" id="object-11"/><circle class="uuid-7f3cd343-e147-4669-b335-0c3834954557" cx="412.99" cy="469.4" r="116.5" id="object-12"/><path class="uuid-109a1e66-b7cf-4724-89a4-d2bdd6adf91a" d="m579.23,527.54c-71.84,0-130.28-58.44-130.28-130.28s58.44-130.28,130.28-130.28,130.28,58.44,130.28,130.28-58.44,130.28-130.28,130.28Zm0-242.8c-62.04,0-112.52,50.48-112.52,112.52s50.48,112.52,112.52,112.52,112.53-50.48,112.53-112.52-50.48-112.52-112.53-112.52Z" id="object-13"/><circle class="uuid-7f3cd343-e147-4669-b335-0c3834954557" cx="578.65" cy="397.39" r="116.5" id="object-14"/></g></svg>